{
    "accessors" : [
        {
            "bufferView" : 0,
            "componentType" : 5121,
            "count" : 36,
            "max" : [
                23
            ],
            "min" : [
                0
            ],
            "type" : "SCALAR"
        },
        {
            "bufferView" : 1,
            "componentType" : 5126,
            "count" : 24,
            "max" : [
                0.5000002384185791,
                0.5,
                0.5000002980232239
            ],
            "min" : [
                -0.5000001788139343,
                -0.5,
                -0.5000001788139343
            ],
            "type" : "VEC3"
        },
        {
            "bufferView" : 2,
            "componentType" : 5126,
            "count" : 24,
            "max" : [
                1.0,
                1.0,
                1.0
            ],
            "min" : [
                -1.0,
                -1.0,
                -1.0
            ],
            "type" : "VEC3"
        },
        {
            "bufferView" : 3,
            "componentType" : 5121,
            "count" : 24,
            "max" : [
                15
            ],
            "min" : [
                0
            ],
            "type" : "SCALAR"
        },
        {
            "bufferView" : 4,
            "componentType" : 5126,
            "count" : 16,
            "max" : [
                111.04832458496094,
                0.4017524719238281,
                184.08078002929688
            ],
            "min" : [
                -110.98310852050781,
                0.4017490744590759,
                -37.950645446777344
            ],
            "type" : "VEC3"
        },
        {
            "bufferView" : 5,
            "componentType" : 5126,
            "count" : 16,
            "max" : [
                0.0,
                1.0,
                -0.0
            ],
            "min" : [
                0.0,
                0.9999999403953552,
                -0.0
            ],
            "type" : "VEC3"
        },
        {
            "bufferView" : 6,
            "componentType" : 5126,
            "count" : 16,
            "max" : [
                1.0,
                0.0,
                1.0,
                1.0
            ],
            "min" : [
                -1.0,
                -1.0703729569350173e-10,
                -1.0,
                1.0
            ],
            "type" : "VEC4"
        },
        {
            "bufferView" : 7,
            "componentType" : 5126,
            "count" : 16,
            "max" : [
                0.7766908407211304,
                0.5062758326530457
            ],
            "min" : [
                0.5336116552352905,
                0.01640993356704712
            ],
            "type" : "VEC2"
        },
        {
            "bufferView" : 8,
            "componentType" : 5123,
            "count" : 1308,
            "max" : [
                459
            ],
            "min" : [
                0
            ],
            "type" : "SCALAR"
        },
        {
            "bufferView" : 9,
            "componentType" : 5126,
            "count" : 460,
            "max" : [
                31.005300521850586,
                -40.96900177001953,
                32.383201599121094
            ],
            "min" : [
                -32.384700775146484,
                -57.09389877319336,
                -27.20639991760254
            ],
            "type" : "VEC3"
        },
        {
            "bufferView" : 10,
            "componentType" : 5126,
            "count" : 460,
            "max" : [
                1.0,
                1.0,
                1.0
            ],
            "min" : [
                -1.0,
                -1.0,
                -1.0
            ],
            "type" : "VEC3"
        },
        {
            "bufferView" : 11,
            "componentType" : 5126,
            "count" : 460,
            "max" : [
                0.9997636675834656,
                0.9956845045089722,
                0.9933175444602966,
                1.0
            ],
            "min" : [
                -0.807701587677002,
                -0.9255077242851257,
                -0.9951704740524292,
                -1.0
            ],
            "type" : "VEC4"
        },
        {
            "bufferView" : 12,
            "componentType" : 5126,
            "count" : 460,
            "max" : [
                0.7270233631134033,
                0.7409696877002716
            ],
            "min" : [
                0.032390616834163666,
                0.1370328664779663
            ],
            "type" : "VEC2"
        },
        {
            "bufferView" : 13,
            "componentType" : 5123,
            "count" : 21582,
            "max" : [
                6908
            ],
            "min" : [
                0
            ],
            "type" : "SCALAR"
        },
        {
            "bufferView" : 14,
            "componentType" : 5126,
            "count" : 6909,
            "max" : [
                111.6151351928711,
                18.038551330566406,
                184.6475830078125
            ],
            "min" : [
                -111.54988861083984,
                -91.920654296875,
                -38.51744079589844
            ],
            "type" : "VEC3"
        },
        {
            "bufferView" : 15,
            "componentType" : 5126,
            "count" : 6909,
            "max" : [
                1.0,
                1.0,
                1.0
            ],
            "min" : [
                -1.0,
                -1.0,
                -1.0
            ],
            "type" : "VEC3"
        },
        {
            "bufferView" : 16,
            "componentType" : 5126,
            "count" : 6909,
            "max" : [
                1.0,
                1.0,
                1.0,
                1.0
            ],
            "min" : [
                -1.0,
                -1.0,
                -1.0,
                -1.0
            ],
            "type" : "VEC4"
        },
        {
            "bufferView" : 17,
            "componentType" : 5126,
            "count" : 6909,
            "max" : [
                0.7787207961082458,
                0.7624131739139557
            ],
            "min" : [
                0.005344138480722904,
                0.008926570415496826
            ],
            "type" : "VEC2"
        },
        {
            "bufferView" : 18,
            "componentType" : 5123,
            "count" : 5022,
            "max" : [
                1239
            ],
            "min" : [
                0
            ],
            "type" : "SCALAR"
        },
        {
            "bufferView" : 19,
            "componentType" : 5126,
            "count" : 1240,
            "max" : [
                31.72760009765625,
                6.267398834228516,
                31.62125015258789
            ],
            "min" : [
                -31.713199615478516,
                -95.1144027709961,
                -31.620849609375
            ],
            "type" : "VEC3"
        },
        {
            "bufferView" : 20,
            "componentType" : 5126,
            "count" : 1240,
            "max" : [
                1.0,
                0.999969482421875,
                1.0
            ],
            "min" : [
                -1.0,
                -1.0,
                -1.0
            ],
            "type" : "VEC3"
        },
        {
            "bufferView" : 21,
            "componentType" : 5126,
            "count" : 1240,
            "max" : [
                1.0,
                0.9773613214492798,
                1.0,
                1.0
            ],
            "min" : [
                -0.9999900460243225,
                -0.9786298871040344,
                -1.0,
                -1.0
            ],
            "type" : "VEC4"
        },
        {
            "bufferView" : 22,
            "componentType" : 5126,
            "count" : 1240,
            "max" : [
                0.8370040655136108,
                0.9110822677612305
            ],
            "min" : [
                0.012531979940831661,
                0.008969783782958984
            ],
            "type" : "VEC2"
        }
    ],
    "asset" : {
        "generator" : "Khronos Blender glTF 2.0 exporter",
        "version" : "2.0"
    },
    "bufferViews" : [
        {
            "buffer" : 0,
            "byteLength" : 36,
            "byteOffset" : 0,
            "target" : 34963
        },
        {
            "buffer" : 0,
            "byteLength" : 288,
            "byteOffset" : 36,
            "target" : 34962
        },
        {
            "buffer" : 0,
            "byteLength" : 288,
            "byteOffset" : 324,
            "target" : 34962
        },
        {
            "buffer" : 0,
            "byteLength" : 24,
            "byteOffset" : 612,
            "target" : 34963
        },
        {
            "buffer" : 0,
            "byteLength" : 192,
            "byteOffset" : 636,
            "target" : 34962
        },
        {
            "buffer" : 0,
            "byteLength" : 192,
            "byteOffset" : 828,
            "target" : 34962
        },
        {
            "buffer" : 0,
            "byteLength" : 256,
            "byteOffset" : 1020,
            "target" : 34962
        },
        {
            "buffer" : 0,
            "byteLength" : 128,
            "byteOffset" : 1276,
            "target" : 34962
        },
        {
            "buffer" : 0,
            "byteLength" : 2616,
            "byteOffset" : 1404,
            "target" : 34963
        },
        {
            "buffer" : 0,
            "byteLength" : 5520,
            "byteOffset" : 4020,
            "target" : 34962
        },
        {
            "buffer" : 0,
            "byteLength" : 5520,
            "byteOffset" : 9540,
            "target" : 34962
        },
        {
            "buffer" : 0,
            "byteLength" : 7360,
            "byteOffset" : 15060,
            "target" : 34962
        },
        {
            "buffer" : 0,
            "byteLength" : 3680,
            "byteOffset" : 22420,
            "target" : 34962
        },
        {
            "buffer" : 0,
            "byteLength" : 43164,
            "byteOffset" : 26100,
            "target" : 34963
        },
        {
            "buffer" : 0,
            "byteLength" : 82908,
            "byteOffset" : 69264,
            "target" : 34962
        },
        {
            "buffer" : 0,
            "byteLength" : 82908,
            "byteOffset" : 152172,
            "target" : 34962
        },
        {
            "buffer" : 0,
            "byteLength" : 110544,
            "byteOffset" : 235080,
            "target" : 34962
        },
        {
            "buffer" : 0,
            "byteLength" : 55272,
            "byteOffset" : 345624,
            "target" : 34962
        },
        {
            "buffer" : 0,
            "byteLength" : 10044,
            "byteOffset" : 400896,
            "target" : 34963
        },
        {
            "buffer" : 0,
            "byteLength" : 14880,
            "byteOffset" : 410940,
            "target" : 34962
        },
        {
            "buffer" : 0,
            "byteLength" : 14880,
            "byteOffset" : 425820,
            "target" : 34962
        },
        {
            "buffer" : 0,
            "byteLength" : 19840,
            "byteOffset" : 440700,
            "target" : 34962
        },
        {
            "buffer" : 0,
            "byteLength" : 9920,
            "byteOffset" : 460540,
            "target" : 34962
        }
    ],
    "buffers" : [
        {
            "byteLength" : 470460,
            "uri" : "satellite.bin"
        }
    ],
    "images" : [
        {
            "name" : "foil_n",
            "uri" : "foil_n.png"
        },
        {
            "name" : "foil_gold_ramp",
            "uri" : "foil_gold_ramp.png"
        },
        {
            "name" : "foil_silver_ramp",
            "uri" : "foil_silver_ramp.png"
        },
        {
            "name" : "tex_01",
            "uri" : "tex_01.jpg"
        }
    ],
    "materials" : [
        {
            "name" : "foil_gold",
            "normalTexture" : {
                "index" : 0
            },
            "pbrMetallicRoughness" : {
                "baseColorFactor" : [
                    0.5576470644567522,
                    0.4129411677402608,
                    0.0564705900789475,
                    1.0
                ],
                "baseColorTexture" : {
                    "index" : 1
                },
                "metallicFactor" : 0.0
            }
        },
        {
            "name" : "foil_silver",
            "normalTexture" : {
                "index" : 0
            },
            "pbrMetallicRoughness" : {
                "baseColorFactor" : [
                    0.6400000190734865,
                    0.6400000190734865,
                    0.6400000190734865,
                    1.0
                ],
                "baseColorTexture" : {
                    "index" : 3
                },
                "metallicFactor" : 0.0
            }
        },
        {
            "name" : "shiny_panels",
            "pbrMetallicRoughness" : {
                "baseColorFactor" : [
                    0.6400000190734865,
                    0.6400000190734865,
                    0.6400000190734865,
                    1.0
                ],
                "baseColorTexture" : {
                    "index" : 4
                },
                "metallicFactor" : 0.0
            }
        },
        {
            "name" : "tex_01",
            "pbrMetallicRoughness" : {
                "baseColorFactor" : [
                    0.6400000190734865,
                    0.6400000190734865,
                    0.6400000190734865,
                    1.0
                ],
                "baseColorTexture" : {
                    "index" : 4
                },
                "metallicFactor" : 0.0
            }
        }
    ],
    "meshes" : [
        {
            "name" : "Cube.004",
            "primitives" : [
                {
                    "attributes" : {
                        "NORMAL" : 2,
                        "POSITION" : 1
                    },
                    "indices" : 0
                }
            ]
        },
        {
            "name" : "NEAR.019",
            "primitives" : [
                {
                    "attributes" : {
                        "NORMAL" : 5,
                        "POSITION" : 4,
                        "TANGENT" : 6,
                        "TEXCOORD_0" : 7
                    },
                    "indices" : 3,
                    "material" : 2
                }
            ]
        },
        {
            "name" : "NEAR",
            "primitives" : [
                {
                    "attributes" : {
                        "NORMAL" : 10,
                        "POSITION" : 9,
                        "TANGENT" : 11,
                        "TEXCOORD_0" : 12
                    },
                    "indices" : 8,
                    "material" : 1
                }
            ]
        },
        {
            "name" : "NEAR.023",
            "primitives" : [
                {
                    "attributes" : {
                        "NORMAL" : 15,
                        "POSITION" : 14,
                        "TANGENT" : 16,
                        "TEXCOORD_0" : 17
                    },
                    "indices" : 13,
                    "material" : 3
                }
            ]
        },
        {
            "name" : "NEAR.009",
            "primitives" : [
                {
                    "attributes" : {
                        "NORMAL" : 20,
                        "POSITION" : 19,
                        "TANGENT" : 21,
                        "TEXCOORD_0" : 22
                    },
                    "indices" : 18,
                    "material" : 0
                }
            ]
        }
    ],
    "nodes" : [
        {
            "children" : [
                1,
                2,
                5,
                6
            ],
            "mesh" : 0,
            "name" : "_root"
        },
        {
            "mesh" : 4,
            "name" : "foil_gold",
            "scale" : [
                0.023720458149909973,
                0.023720458149909973,
                0.023720458149909973
            ],
            "translation" : [
                0.0,
                1.283620834350586,
                1.18480591027037e-06
            ]
        },
        {
            "mesh" : 2,
            "name" : "foil_silver",
            "scale" : [
                0.023720458149909973,
                0.023720458149909973,
                0.023720458149909973
            ]
        },
        {
            "name" : "Hemi",
            "translation" : [
                -0.05598868057131767,
                4.947225570678711,
                -0.17670921981334686
            ]
        },
        {
            "name" : "Hemi.001",
            "rotation" : [
                -4.080360994831306e-15,
                -3.422854533141617e-08,
                -1.0,
                -1.6292068494294654e-07
            ],
            "translation" : [
                -0.05598868057131767,
                -5.412849426269531,
                -0.17670921981334686
            ]
        },
        {
            "mesh" : 1,
            "name" : "shiny_panels",
            "scale" : [
                0.023720458149909973,
                0.023720458149909973,
                0.023720458149909973
            ],
            "translation" : [
                -0.000773296516854316,
                0.7481135725975037,
                -1.7331366539001465
            ]
        },
        {
            "mesh" : 3,
            "name" : "tex_01",
            "rotation" : [
                0.0,
                0.7071065902709961,
                -0.0,
                0.7071069478988647
            ],
            "scale" : [
                0.023720458149909973,
                0.023720458149909973,
                0.023720458149909973
            ],
            "translation" : [
                -1.7331366539001465,
                0.7481135725975037,
                0.0007729530334472656
            ]
        }
    ],
    "samplers" : [
        {}
    ],
    "scene" : 0,
    "scenes" : [
        {
            "name" : "Scene",
            "nodes" : [
                4,
                3,
                0
            ]
        }
    ],
    "textures" : [
        {
            "sampler" : 0,
            "source" : 0
        },
        {
            "sampler" : 0,
            "source" : 1
        },
        {
            "sampler" : 0,
            "source" : 0
        },
        {
            "sampler" : 0,
            "source" : 2
        },
        {
            "sampler" : 0,
            "source" : 3
        },
        {
            "sampler" : 0,
            "source" : 3
        }
    ]
}
